<svg width="20" height="20" viewBox="0 0 20 20" fill="none" xmlns="http://www.w3.org/2000/svg">
<g clip-path="url(#clip0_429_10167)">
<path d="M4.16675 12.5H3.33341C2.89139 12.5 2.46746 12.3244 2.1549 12.0118C1.84234 11.6993 1.66675 11.2754 1.66675 10.8333V3.33332C1.66675 2.8913 1.84234 2.46737 2.1549 2.15481C2.46746 1.84225 2.89139 1.66666 3.33341 1.66666H10.8334C11.2754 1.66666 11.6994 1.84225 12.0119 2.15481C12.3245 2.46737 12.5001 2.8913 12.5001 3.33332V4.16666M9.16675 7.49999H16.6667C17.5872 7.49999 18.3334 8.24618 18.3334 9.16666V16.6667C18.3334 17.5871 17.5872 18.3333 16.6667 18.3333H9.16675C8.24627 18.3333 7.50008 17.5871 7.50008 16.6667V9.16666C7.50008 8.24618 8.24627 7.49999 9.16675 7.49999Z" stroke="#667085" stroke-width="1.66667" stroke-linecap="round" stroke-linejoin="round"/>
</g>
<defs>
<clipPath id="clip0_429_10167">
<rect width="20" height="20" fill="white"/>
</clipPath>
</defs>
</svg>
