<svg width="224" height="40" viewBox="0 0 224 40" fill="none" xmlns="http://www.w3.org/2000/svg">
<g clip-path="url(#clip0_365_6356)">
<g filter="url(#filter0_dd_365_6356)">
<circle cx="20" cy="20" r="20" fill="url(#paint0_linear_365_6356)"/>
</g>
<path d="M52.3281 6.14746V4.81445H60.333V6.14746H57.0996V15H55.5752V6.14746H52.3281ZM60.1806 15V7.78125H61.5615V8.9502H61.5889C61.721 8.55371 61.9284 8.24609 62.2109 8.02734C62.498 7.80404 62.8717 7.69238 63.332 7.69238C63.4414 7.69238 63.5417 7.69694 63.6328 7.70605C63.7239 7.71517 63.7991 7.72201 63.8584 7.72656V9.07324C63.8037 9.05957 63.7057 9.0459 63.5644 9.03223C63.4232 9.014 63.2682 9.00488 63.0996 9.00488C62.694 9.00488 62.3454 9.14616 62.0537 9.42871C61.7666 9.71126 61.623 10.1465 61.623 10.7344V15H60.1806ZM64.8818 15V7.78125H66.3242V15H64.8818ZM65.5996 6.53711C65.3444 6.53711 65.1279 6.4528 64.9502 6.28418C64.777 6.111 64.6904 5.90137 64.6904 5.65527C64.6904 5.40462 64.777 5.19499 64.9502 5.02637C65.1279 4.85319 65.3444 4.7666 65.5996 4.7666C65.8548 4.7666 66.0713 4.85319 66.249 5.02637C66.4267 5.19499 66.5156 5.40462 66.5156 5.65527C66.5156 5.90137 66.4267 6.111 66.249 6.28418C66.0713 6.4528 65.8548 6.53711 65.5996 6.53711ZM70.4853 15.1436C69.9931 15.1436 69.5488 15.0365 69.1523 14.8223C68.7604 14.6035 68.4482 14.2822 68.2158 13.8584C67.9879 13.4346 67.874 12.9082 67.874 12.2793V7.78125H69.3164V12.1016C69.3164 12.6803 69.4554 13.1178 69.7334 13.4141C70.0113 13.7057 70.401 13.8516 70.9023 13.8516C71.3899 13.8516 71.8001 13.7012 72.1328 13.4004C72.47 13.0951 72.6386 12.6074 72.6386 11.9375V7.78125H74.081V15H72.666V13.9131C72.1738 14.7334 71.4469 15.1436 70.4853 15.1436ZM75.624 15V7.78125H77.0253V8.99121C77.2486 8.5446 77.5517 8.20736 77.9345 7.97949C78.3173 7.75163 78.732 7.6377 79.1786 7.6377C79.6708 7.6377 80.1015 7.76302 80.4706 8.01367C80.8443 8.26432 81.1064 8.58333 81.2568 8.9707C81.4527 8.57878 81.749 8.25977 82.1454 8.01367C82.5465 7.76302 83.0136 7.6377 83.5468 7.6377C83.9934 7.6377 84.399 7.73568 84.7636 7.93164C85.1282 8.1276 85.4176 8.41927 85.6318 8.80664C85.846 9.18945 85.9531 9.67025 85.9531 10.249V15H84.5038V10.3721C84.5038 9.8571 84.3603 9.4834 84.0732 9.25098C83.7861 9.01855 83.4466 8.90234 83.0546 8.90234C82.5716 8.90234 82.191 9.05273 81.913 9.35352C81.635 9.64974 81.496 10.028 81.496 10.4883V15H80.0742V10.2764C80.0742 9.86165 79.9397 9.52897 79.6708 9.27832C79.4065 9.02767 79.0693 8.90234 78.6591 8.90234C78.2398 8.90234 77.8684 9.05046 77.5449 9.34668C77.2258 9.6429 77.0663 10.0758 77.0663 10.6455V15H75.624ZM87.5029 17.8574V7.78125H88.9179V8.82031H88.9384C89.1663 8.42383 89.4784 8.1276 89.8749 7.93164C90.2714 7.73568 90.7044 7.6377 91.1738 7.6377C91.7935 7.6377 92.3381 7.7972 92.8075 8.11621C93.2769 8.43066 93.6415 8.87044 93.9013 9.43555C94.1656 9.99609 94.2978 10.6478 94.2978 11.3906C94.2978 12.1335 94.1679 12.7874 93.9081 13.3525C93.6484 13.9131 93.2838 14.3529 92.8144 14.6719C92.345 14.9863 91.7958 15.1436 91.1669 15.1436C90.6975 15.1436 90.2737 15.041 89.8954 14.8359C89.5172 14.6309 89.2073 14.3232 88.9657 13.9131H88.9452V17.8574H87.5029ZM90.873 13.8994C91.4563 13.8994 91.928 13.6852 92.288 13.2568C92.6526 12.8285 92.8349 12.2064 92.8349 11.3906C92.8349 10.5749 92.6526 9.9528 92.288 9.52441C91.928 9.09147 91.4563 8.875 90.873 8.875C90.2577 8.875 89.7655 9.10514 89.3964 9.56543C89.0318 10.0212 88.8495 10.6296 88.8495 11.3906C88.8495 12.1471 89.0318 12.7555 89.3964 13.2158C89.7655 13.6715 90.2577 13.8994 90.873 13.8994ZM96.9276 10.8438V15H95.4853V4.81445H96.9276V8.82031C97.4244 8.0319 98.1422 7.6377 99.081 7.6377C99.5777 7.6377 100.022 7.74707 100.414 7.96582C100.81 8.18001 101.123 8.49902 101.35 8.92285C101.578 9.34668 101.692 9.87305 101.692 10.502V15H100.25V10.6797C100.25 10.1009 100.111 9.66569 99.8329 9.37402C99.5549 9.0778 99.1675 8.92969 98.6708 8.92969C98.1786 8.92969 97.7639 9.08236 97.4267 9.3877C97.094 9.68848 96.9276 10.1738 96.9276 10.8438ZM106.687 15.1641C105.949 15.1641 105.304 15.016 104.753 14.7197C104.206 14.4189 103.78 14.0111 103.474 13.4961C103.174 12.9811 103.023 12.3978 103.023 11.7461H104.514C104.514 12.4023 104.707 12.9264 105.095 13.3184C105.482 13.7057 106.006 13.8994 106.667 13.8994C107.296 13.8994 107.804 13.7126 108.191 13.3389C108.579 12.9606 108.772 12.4707 108.772 11.8691C108.772 11.2493 108.556 10.7686 108.123 10.4268C107.695 10.085 107.107 9.91406 106.359 9.91406H105.047V8.82031L107.849 6.12012V6.11328H103.659V4.81445H109.743V6.08594L106.763 8.9502C107.528 8.93652 108.171 9.05501 108.69 9.30566C109.21 9.55176 109.599 9.89811 109.859 10.3447C110.124 10.7913 110.256 11.3063 110.256 11.8896C110.256 12.5277 110.105 13.0951 109.805 13.5918C109.504 14.084 109.085 14.4691 108.547 14.7471C108.014 15.0251 107.394 15.1641 106.687 15.1641ZM115.114 15.1641C114.326 15.1641 113.644 14.9499 113.07 14.5215C112.501 14.0931 112.061 13.487 111.751 12.7031C111.441 11.9147 111.286 10.985 111.286 9.91406C111.286 8.83854 111.441 7.90658 111.751 7.11816C112.061 6.32975 112.501 5.72135 113.07 5.29297C113.644 4.86458 114.326 4.65039 115.114 4.65039C115.898 4.65039 116.575 4.86458 117.144 5.29297C117.719 5.72135 118.161 6.32975 118.471 7.11816C118.78 7.90658 118.935 8.83854 118.935 9.91406C118.935 10.985 118.78 11.9147 118.471 12.7031C118.161 13.487 117.719 14.0931 117.144 14.5215C116.575 14.9499 115.898 15.1641 115.114 15.1641ZM115.114 13.8721C115.852 13.8721 116.433 13.5212 116.857 12.8193C117.286 12.113 117.5 11.1445 117.5 9.91406C117.5 8.67904 117.286 7.70833 116.857 7.00195C116.433 6.29557 115.852 5.94238 115.114 5.94238C114.371 5.94238 113.786 6.29557 113.357 7.00195C112.933 7.70833 112.722 8.67904 112.722 9.91406C112.722 11.1445 112.933 12.113 113.357 12.8193C113.786 13.5212 114.371 13.8721 115.114 13.8721ZM126.889 15H123.594V4.81445H126.991C127.989 4.81445 128.848 5.01953 129.568 5.42969C130.293 5.83984 130.849 6.42546 131.236 7.18652C131.624 7.94303 131.817 8.84538 131.817 9.89355C131.817 10.9463 131.621 11.8555 131.229 12.6211C130.842 13.3822 130.279 13.9701 129.541 14.3848C128.807 14.7949 127.923 15 126.889 15ZM125.111 13.6807H126.793C127.982 13.6807 128.862 13.3457 129.431 12.6758C130.006 12.0059 130.293 11.0785 130.293 9.89355C130.293 8.71322 130.01 7.79264 129.445 7.13184C128.88 6.46647 128.03 6.13379 126.895 6.13379H125.111V13.6807ZM136.183 15.1641C135.468 15.1641 134.853 15.0023 134.338 14.6787C133.827 14.3551 133.433 13.9108 133.155 13.3457C132.882 12.776 132.745 12.1289 132.745 11.4043C132.745 10.6706 132.888 10.0189 133.176 9.44922C133.463 8.87956 133.859 8.43294 134.365 8.10938C134.871 7.78125 135.452 7.61719 136.108 7.61719C136.792 7.61719 137.384 7.77669 137.886 8.0957C138.391 8.41471 138.783 8.85905 139.061 9.42871C139.339 9.99382 139.478 10.6478 139.478 11.3906V11.7803H134.167C134.194 12.432 134.381 12.9583 134.727 13.3594C135.078 13.7604 135.57 13.9609 136.204 13.9609C136.678 13.9609 137.068 13.8538 137.373 13.6396C137.678 13.4255 137.881 13.1475 137.981 12.8057H139.369C139.282 13.2705 139.089 13.6807 138.788 14.0361C138.492 14.3916 138.118 14.6696 137.667 14.8701C137.22 15.0661 136.726 15.1641 136.183 15.1641ZM134.18 10.6865H138.07C138.011 10.1123 137.808 9.65885 137.462 9.32617C137.115 8.98893 136.669 8.82031 136.122 8.82031C135.575 8.82031 135.128 8.98893 134.782 9.32617C134.44 9.65885 134.24 10.1123 134.18 10.6865ZM142.471 15L139.722 7.78125H141.267L142.703 11.7393C142.803 12.0218 142.899 12.3044 142.99 12.5869C143.081 12.8695 143.172 13.1497 143.263 13.4277C143.355 13.1497 143.446 12.8695 143.537 12.5869C143.628 12.3044 143.721 12.0218 143.817 11.7393L145.232 7.78125H146.757L144.002 15H142.471ZM150.487 15.1641C149.799 15.1641 149.195 15.0046 148.676 14.6855C148.156 14.3665 147.75 13.9245 147.459 13.3594C147.172 12.7943 147.028 12.1426 147.028 11.4043C147.028 10.6569 147.172 10.0007 147.459 9.43555C147.75 8.86589 148.156 8.42155 148.676 8.10254C149.195 7.77897 149.799 7.61719 150.487 7.61719C151.175 7.61719 151.777 7.77897 152.292 8.10254C152.811 8.42155 153.215 8.86589 153.502 9.43555C153.793 10.0007 153.939 10.6569 153.939 11.4043C153.939 12.1426 153.793 12.7943 153.502 13.3594C153.215 13.9245 152.811 14.3665 152.292 14.6855C151.777 15.0046 151.175 15.1641 150.487 15.1641ZM150.487 13.9199C151.107 13.9199 151.595 13.6921 151.95 13.2363C152.305 12.7806 152.483 12.1699 152.483 11.4043C152.483 10.6296 152.303 10.012 151.943 9.55176C151.588 9.09147 151.102 8.86133 150.487 8.86133C149.872 8.86133 149.384 9.09147 149.024 9.55176C148.669 10.0075 148.491 10.625 148.491 11.4043C148.491 12.1745 148.669 12.7874 149.024 13.2432C149.38 13.6943 149.867 13.9199 150.487 13.9199ZM158.613 7.78125V8.9707H157.15V13.0928C157.15 13.3617 157.205 13.5485 157.314 13.6533C157.424 13.7581 157.622 13.8105 157.909 13.8105H158.613V15H157.704C156.369 15 155.701 14.4258 155.701 13.2773V8.9707H154.429V7.78125H155.701V5.8125H157.15V7.78125H158.613ZM159.671 15V7.78125H161.113V15H159.671ZM160.388 6.53711C160.133 6.53711 159.917 6.4528 159.739 6.28418C159.566 6.111 159.479 5.90137 159.479 5.65527C159.479 5.40462 159.566 5.19499 159.739 5.02637C159.917 4.85319 160.133 4.7666 160.388 4.7666C160.644 4.7666 160.86 4.85319 161.038 5.02637C161.216 5.19499 161.304 5.40462 161.304 5.65527C161.304 5.90137 161.216 6.111 161.038 6.28418C160.86 6.4528 160.644 6.53711 160.388 6.53711ZM165.766 15.1641C165.078 15.1641 164.474 15.0046 163.955 14.6855C163.435 14.3665 163.03 13.9245 162.738 13.3594C162.451 12.7943 162.307 12.1426 162.307 11.4043C162.307 10.6569 162.451 10.0007 162.738 9.43555C163.03 8.86589 163.435 8.42155 163.955 8.10254C164.474 7.77897 165.078 7.61719 165.766 7.61719C166.455 7.61719 167.056 7.77897 167.571 8.10254C168.091 8.42155 168.494 8.86589 168.781 9.43555C169.073 10.0007 169.218 10.6569 169.218 11.4043C169.218 12.1426 169.073 12.7943 168.781 13.3594C168.494 13.9245 168.091 14.3665 167.571 14.6855C167.056 15.0046 166.455 15.1641 165.766 15.1641ZM165.766 13.9199C166.386 13.9199 166.874 13.6921 167.229 13.2363C167.585 12.7806 167.762 12.1699 167.762 11.4043C167.762 10.6296 167.582 10.012 167.222 9.55176C166.867 9.09147 166.382 8.86133 165.766 8.86133C165.151 8.86133 164.663 9.09147 164.303 9.55176C163.948 10.0075 163.77 10.625 163.77 11.4043C163.77 12.1745 163.948 12.7874 164.303 13.2432C164.659 13.6943 165.147 13.9199 165.766 13.9199ZM171.855 10.8438V15H170.413V7.78125H171.828V8.86816C172.32 8.04785 173.047 7.6377 174.009 7.6377C174.505 7.6377 174.95 7.74707 175.342 7.96582C175.738 8.18001 176.05 8.49902 176.278 8.92285C176.506 9.34668 176.62 9.87305 176.62 10.502V15H175.177V10.6797C175.177 10.1009 175.038 9.66569 174.76 9.37402C174.482 9.0778 174.095 8.92969 173.598 8.92969C173.106 8.92969 172.691 9.08236 172.354 9.3877C172.022 9.68848 171.855 10.1738 171.855 10.8438ZM180.364 15.1162C179.644 15.1162 179.047 14.9339 178.573 14.5693C178.099 14.2002 177.862 13.6556 177.862 12.9355C177.862 12.3887 177.996 11.9694 178.265 11.6777C178.539 11.3815 178.892 11.1696 179.325 11.042C179.762 10.9144 180.225 10.821 180.713 10.7617C181.164 10.707 181.522 10.6615 181.786 10.625C182.05 10.5885 182.237 10.5339 182.346 10.4609C182.46 10.388 182.517 10.2627 182.517 10.085V10.0234C182.517 9.67253 182.39 9.38542 182.134 9.16211C181.879 8.93424 181.522 8.82031 181.061 8.82031C180.601 8.82031 180.225 8.93197 179.933 9.15527C179.642 9.37402 179.482 9.64974 179.455 9.98242H178.04C178.072 9.29427 178.361 8.73145 178.908 8.29395C179.455 7.85645 180.179 7.6377 181.082 7.6377C181.97 7.6377 182.67 7.85645 183.18 8.29395C183.691 8.73145 183.946 9.31706 183.946 10.0508V15H182.524V13.9746H182.497C182.346 14.2663 182.107 14.5306 181.779 14.7676C181.455 15 180.984 15.1162 180.364 15.1162ZM180.658 13.9541C181.296 13.9541 181.765 13.79 182.066 13.4619C182.371 13.1292 182.524 12.7419 182.524 12.2998V11.4521C182.428 11.5296 182.212 11.6003 181.875 11.6641C181.537 11.7233 181.177 11.7803 180.795 11.835C180.398 11.8942 180.05 12.0059 179.749 12.1699C179.448 12.334 179.298 12.5983 179.298 12.9629C179.298 13.2728 179.418 13.5166 179.66 13.6943C179.906 13.8675 180.239 13.9541 180.658 13.9541ZM186.931 4.81445V15H185.489V4.81445H186.931Z" fill="black"/>
<path d="M55.5625 36H52.8672V27.2695H55.6797C56.5273 27.2695 57.2539 27.4434 57.8594 27.791C58.4688 28.1387 58.9355 28.6387 59.2598 29.291C59.584 29.9395 59.7461 30.7148 59.7461 31.6172C59.7461 32.5273 59.582 33.3105 59.2539 33.9668C58.9258 34.6191 58.4492 35.1211 57.8242 35.4727C57.2031 35.8242 56.4492 36 55.5625 36ZM53.9219 35.0625H55.4922C56.5781 35.0625 57.3828 34.7559 57.9062 34.1426C58.4297 33.5254 58.6914 32.6836 58.6914 31.6172C58.6914 30.5625 58.4336 29.7305 57.918 29.1211C57.4062 28.5117 56.6367 28.207 55.6094 28.207H53.9219V35.0625ZM62.8984 36.0938C62.2852 36.0938 61.7715 35.9355 61.3574 35.6191C60.9473 35.3027 60.7422 34.8359 60.7422 34.2188C60.7422 33.8633 60.8105 33.5742 60.9473 33.3516C61.0879 33.1289 61.2734 32.9551 61.5039 32.8301C61.7383 32.7012 62.002 32.6035 62.2949 32.5371C62.5918 32.4707 62.8945 32.418 63.2031 32.3789C63.5977 32.3242 63.9082 32.2832 64.1348 32.2559C64.3613 32.2285 64.5215 32.1836 64.6152 32.1211C64.7129 32.0586 64.7617 31.9492 64.7617 31.793V31.7344C64.7617 31.3984 64.6406 31.1211 64.3984 30.9023C64.1602 30.6836 63.8242 30.5742 63.3906 30.5742C62.9609 30.5742 62.6074 30.6797 62.3301 30.8906C62.0566 31.0977 61.9082 31.3555 61.8848 31.6641H60.8711C60.8906 31.2852 61.0078 30.9492 61.2227 30.6562C61.4375 30.3594 61.7305 30.125 62.1016 29.9531C62.4727 29.7812 62.9023 29.6953 63.3906 29.6953C64.1133 29.6953 64.6855 29.8828 65.1074 30.2578C65.5332 30.6289 65.7461 31.1211 65.7461 31.7344V36H64.7617V35.1211H64.7383C64.6641 35.2695 64.5547 35.4199 64.4102 35.5723C64.2656 35.7207 64.0703 35.8457 63.8242 35.9473C63.582 36.0449 63.2734 36.0938 62.8984 36.0938ZM63.0391 35.2031C63.4453 35.2031 63.7754 35.1309 64.0293 34.9863C64.2832 34.8379 64.4688 34.6465 64.5859 34.4121C64.7031 34.1777 64.7617 33.9258 64.7617 33.6562V32.8828C64.6875 32.9531 64.4902 33.0176 64.1699 33.0762C63.8496 33.1309 63.5117 33.1836 63.1562 33.2344C62.918 33.2656 62.6914 33.3203 62.4766 33.3984C62.2656 33.4727 62.0938 33.5801 61.9609 33.7207C61.8281 33.8574 61.7617 34.043 61.7617 34.2773C61.7617 34.5664 61.875 34.793 62.1016 34.957C62.332 35.1211 62.6445 35.2031 63.0391 35.2031ZM67.2227 36V29.8125H68.2188V36H67.2227ZM67.7207 28.6055C67.5332 28.6055 67.373 28.5391 67.2402 28.4062C67.1074 28.2734 67.041 28.1133 67.041 27.9258C67.041 27.7383 67.1074 27.5781 67.2402 27.4453C67.373 27.3125 67.5332 27.2461 67.7207 27.2461C67.9082 27.2461 68.0684 27.3125 68.2012 27.4453C68.334 27.5781 68.4004 27.7383 68.4004 27.9258C68.4004 28.1133 68.334 28.2734 68.2012 28.4062C68.0684 28.5391 67.9082 28.6055 67.7207 28.6055ZM70.6914 27.2695V36H69.6953V27.2695H70.6914ZM72.2734 38.4492V37.5703H72.8828C73.25 37.5703 73.5293 37.3223 73.7207 36.8262L74.0605 35.9473L71.6641 29.8125H72.7422L74.0781 33.375C74.1641 33.6055 74.248 33.8379 74.3301 34.0723C74.416 34.3027 74.498 34.5332 74.5762 34.7637C74.6582 34.5332 74.7402 34.3027 74.8223 34.0723C74.9082 33.8379 74.9941 33.6055 75.0801 33.375L76.3926 29.8125H77.4531L74.5996 37.1484C74.4395 37.5625 74.2109 37.8828 73.9141 38.1094C73.6172 38.3359 73.2734 38.4492 72.8828 38.4492H72.2734ZM84.1914 36H81.4961V27.2695H84.3086C85.1562 27.2695 85.8828 27.4434 86.4883 27.791C87.0977 28.1387 87.5645 28.6387 87.8887 29.291C88.2129 29.9395 88.375 30.7148 88.375 31.6172C88.375 32.5273 88.2109 33.3105 87.8828 33.9668C87.5547 34.6191 87.0781 35.1211 86.4531 35.4727C85.832 35.8242 85.0781 36 84.1914 36ZM82.5508 35.0625H84.1211C85.207 35.0625 86.0117 34.7559 86.5352 34.1426C87.0586 33.5254 87.3203 32.6836 87.3203 31.6172C87.3203 30.5625 87.0625 29.7305 86.5469 29.1211C86.0352 28.5117 85.2656 28.207 84.2383 28.207H82.5508V35.0625ZM92.1953 36.1406C91.5898 36.1406 91.0723 36.002 90.6426 35.7246C90.2168 35.4473 89.8906 35.0664 89.6641 34.582C89.4375 34.0938 89.3242 33.5391 89.3242 32.918C89.3242 32.2891 89.4434 31.7305 89.6816 31.2422C89.9199 30.7539 90.25 30.3711 90.6719 30.0938C91.0938 29.8125 91.5781 29.6719 92.125 29.6719C92.6992 29.6719 93.1973 29.8086 93.6191 30.082C94.041 30.3555 94.3652 30.7363 94.5918 31.2246C94.8223 31.7129 94.9375 32.2773 94.9375 32.918V33.1934H90.3086C90.332 33.7988 90.5059 34.291 90.8301 34.6699C91.1543 35.0488 91.6094 35.2383 92.1953 35.2383C92.6367 35.2383 92.9961 35.1367 93.2734 34.9336C93.5547 34.7305 93.7422 34.4688 93.8359 34.1484H94.832C94.7539 34.543 94.5918 34.8906 94.3457 35.1914C94.0996 35.4883 93.791 35.7207 93.4199 35.8887C93.0527 36.0566 92.6445 36.1406 92.1953 36.1406ZM90.3203 32.3379H93.9414C93.8867 31.7949 93.6973 31.3633 93.373 31.043C93.0488 30.7227 92.6328 30.5625 92.125 30.5625C91.6172 30.5625 91.2031 30.7227 90.8828 31.043C90.5625 31.3633 90.375 31.7949 90.3203 32.3379ZM97.668 36L95.2773 29.8125H96.3555L97.6914 33.375C97.7812 33.6133 97.8672 33.8516 97.9492 34.0898C98.0312 34.3242 98.1113 34.5605 98.1895 34.7988C98.2715 34.5605 98.3535 34.3242 98.4355 34.0898C98.5176 33.8516 98.6016 33.6133 98.6875 33.375L100.006 29.8125H101.066L98.6758 36H97.668ZM104.301 36.1406C103.73 36.1406 103.229 36.0039 102.795 35.7305C102.365 35.4531 102.029 35.0723 101.787 34.5879C101.549 34.1035 101.43 33.5469 101.43 32.918C101.43 32.2852 101.549 31.7246 101.787 31.2363C102.029 30.748 102.365 30.3652 102.795 30.0879C103.229 29.8105 103.73 29.6719 104.301 29.6719C104.875 29.6719 105.377 29.8105 105.807 30.0879C106.236 30.3652 106.57 30.748 106.809 31.2363C107.051 31.7246 107.172 32.2852 107.172 32.918C107.172 33.5469 107.051 34.1035 106.809 34.5879C106.57 35.0723 106.236 35.4531 105.807 35.7305C105.377 36.0039 104.875 36.1406 104.301 36.1406ZM104.301 35.2383C104.887 35.2383 105.344 35.0273 105.672 34.6055C106 34.1797 106.164 33.6172 106.164 32.918C106.164 32.2109 105.998 31.6445 105.666 31.2188C105.338 30.7891 104.883 30.5742 104.301 30.5742C103.719 30.5742 103.262 30.7871 102.93 31.2129C102.602 31.6387 102.438 32.207 102.438 32.918C102.438 33.6211 102.602 34.1836 102.93 34.6055C103.258 35.0273 103.715 35.2383 104.301 35.2383ZM111.033 29.8125V30.668H109.779V34.5C109.779 34.7383 109.828 34.9062 109.926 35.0039C110.027 35.0977 110.205 35.1445 110.459 35.1445H111.033V36H110.365C109.311 36 108.783 35.5352 108.783 34.6055V30.668H107.682V29.8125H108.783V28.125H109.779V29.8125H111.033ZM112.07 36V29.8125H113.066V36H112.07ZM112.568 28.6055C112.381 28.6055 112.221 28.5391 112.088 28.4062C111.955 28.2734 111.889 28.1133 111.889 27.9258C111.889 27.7383 111.955 27.5781 112.088 27.4453C112.221 27.3125 112.381 27.2461 112.568 27.2461C112.756 27.2461 112.916 27.3125 113.049 27.4453C113.182 27.5781 113.248 27.7383 113.248 27.9258C113.248 28.1133 113.182 28.2734 113.049 28.4062C112.916 28.5391 112.756 28.6055 112.568 28.6055ZM117.098 36.1406C116.527 36.1406 116.025 36.0039 115.592 35.7305C115.162 35.4531 114.826 35.0723 114.584 34.5879C114.346 34.1035 114.227 33.5469 114.227 32.918C114.227 32.2852 114.346 31.7246 114.584 31.2363C114.826 30.748 115.162 30.3652 115.592 30.0879C116.025 29.8105 116.527 29.6719 117.098 29.6719C117.672 29.6719 118.174 29.8105 118.604 30.0879C119.033 30.3652 119.367 30.748 119.605 31.2363C119.848 31.7246 119.969 32.2852 119.969 32.918C119.969 33.5469 119.848 34.1035 119.605 34.5879C119.367 35.0723 119.033 35.4531 118.604 35.7305C118.174 36.0039 117.672 36.1406 117.098 36.1406ZM117.098 35.2383C117.684 35.2383 118.141 35.0273 118.469 34.6055C118.797 34.1797 118.961 33.6172 118.961 32.918C118.961 32.2109 118.795 31.6445 118.463 31.2188C118.135 30.7891 117.68 30.5742 117.098 30.5742C116.516 30.5742 116.059 30.7871 115.727 31.2129C115.398 31.6387 115.234 32.207 115.234 32.918C115.234 33.6211 115.398 34.1836 115.727 34.6055C116.055 35.0273 116.512 35.2383 117.098 35.2383ZM122.125 32.3789V36H121.129V29.8125H122.102V30.7207C122.316 30.3691 122.578 30.1113 122.887 29.9473C123.199 29.7793 123.551 29.6953 123.941 29.6953C124.359 29.6953 124.74 29.7871 125.084 29.9707C125.428 30.1504 125.701 30.4219 125.904 30.7852C126.111 31.1484 126.215 31.6055 126.215 32.1562V36H125.219V32.2266C125.219 31.6914 125.09 31.2891 124.832 31.0195C124.578 30.7461 124.219 30.6094 123.754 30.6094C123.305 30.6094 122.92 30.748 122.6 31.0254C122.283 31.3027 122.125 31.7539 122.125 32.3789ZM129.578 36.0938C128.965 36.0938 128.451 35.9355 128.037 35.6191C127.627 35.3027 127.422 34.8359 127.422 34.2188C127.422 33.8633 127.49 33.5742 127.627 33.3516C127.768 33.1289 127.953 32.9551 128.184 32.8301C128.418 32.7012 128.682 32.6035 128.975 32.5371C129.271 32.4707 129.574 32.418 129.883 32.3789C130.277 32.3242 130.588 32.2832 130.814 32.2559C131.041 32.2285 131.201 32.1836 131.295 32.1211C131.393 32.0586 131.441 31.9492 131.441 31.793V31.7344C131.441 31.3984 131.32 31.1211 131.078 30.9023C130.84 30.6836 130.504 30.5742 130.07 30.5742C129.641 30.5742 129.287 30.6797 129.01 30.8906C128.736 31.0977 128.588 31.3555 128.564 31.6641H127.551C127.57 31.2852 127.688 30.9492 127.902 30.6562C128.117 30.3594 128.41 30.125 128.781 29.9531C129.152 29.7812 129.582 29.6953 130.07 29.6953C130.793 29.6953 131.365 29.8828 131.787 30.2578C132.213 30.6289 132.426 31.1211 132.426 31.7344V36H131.441V35.1211H131.418C131.344 35.2695 131.234 35.4199 131.09 35.5723C130.945 35.7207 130.75 35.8457 130.504 35.9473C130.262 36.0449 129.953 36.0938 129.578 36.0938ZM129.719 35.2031C130.125 35.2031 130.455 35.1309 130.709 34.9863C130.963 34.8379 131.148 34.6465 131.266 34.4121C131.383 34.1777 131.441 33.9258 131.441 33.6562V32.8828C131.367 32.9531 131.17 33.0176 130.85 33.0762C130.529 33.1309 130.191 33.1836 129.836 33.2344C129.598 33.2656 129.371 33.3203 129.156 33.3984C128.945 33.4727 128.773 33.5801 128.641 33.7207C128.508 33.8574 128.441 34.043 128.441 34.2773C128.441 34.5664 128.555 34.793 128.781 34.957C129.012 35.1211 129.324 35.2031 129.719 35.2031ZM134.898 27.2695V36H133.902V27.2695H134.898ZM138.531 36.1406C138.09 36.1406 137.689 36.0684 137.33 35.9238C136.971 35.7793 136.68 35.5605 136.457 35.2676C136.234 34.9707 136.109 34.5977 136.082 34.1484H137.066C137.137 34.9062 137.617 35.2852 138.508 35.2852C138.938 35.2852 139.275 35.1953 139.521 35.0156C139.771 34.8359 139.896 34.6094 139.896 34.3359C139.896 34.1016 139.811 33.9141 139.639 33.7734C139.467 33.6328 139.242 33.5312 138.965 33.4688L137.969 33.2344C136.805 32.9609 136.223 32.375 136.223 31.4766C136.223 31.125 136.316 30.8145 136.504 30.5449C136.695 30.2715 136.959 30.0586 137.295 29.9062C137.635 29.75 138.025 29.6719 138.467 29.6719C138.896 29.6719 139.281 29.7539 139.621 29.918C139.965 30.0781 140.236 30.3066 140.436 30.6035C140.639 30.9004 140.746 31.2539 140.758 31.6641H139.785C139.781 31.3359 139.66 31.0645 139.422 30.8496C139.184 30.6348 138.865 30.5273 138.467 30.5273C138.088 30.5273 137.785 30.6191 137.559 30.8027C137.332 30.9863 137.219 31.2109 137.219 31.4766C137.219 31.7109 137.305 31.9004 137.477 32.0449C137.648 32.1855 137.883 32.291 138.18 32.3613L139.176 32.5957C139.77 32.7363 140.205 32.9473 140.482 33.2285C140.76 33.5059 140.898 33.8672 140.898 34.3125C140.898 34.6953 140.795 35.0234 140.588 35.2969C140.381 35.5703 140.098 35.7793 139.738 35.9238C139.383 36.0684 138.98 36.1406 138.531 36.1406Z" fill="#4A4A4A"/>
</g>
<defs>
<filter id="filter0_dd_365_6356" x="-3.375" y="-2.25" width="46.75" height="46.75" filterUnits="userSpaceOnUse" color-interpolation-filters="sRGB">
<feFlood flood-opacity="0" result="BackgroundImageFix"/>
<feColorMatrix in="SourceAlpha" type="matrix" values="0 0 0 0 0 0 0 0 0 0 0 0 0 0 0 0 0 0 127 0" result="hardAlpha"/>
<feOffset dy="1.125"/>
<feGaussianBlur stdDeviation="1.125"/>
<feColorMatrix type="matrix" values="0 0 0 0 0.0627451 0 0 0 0 0.0941176 0 0 0 0 0.156863 0 0 0 0.06 0"/>
<feBlend mode="normal" in2="BackgroundImageFix" result="effect1_dropShadow_365_6356"/>
<feColorMatrix in="SourceAlpha" type="matrix" values="0 0 0 0 0 0 0 0 0 0 0 0 0 0 0 0 0 0 127 0" result="hardAlpha"/>
<feOffset dy="1.125"/>
<feGaussianBlur stdDeviation="1.6875"/>
<feColorMatrix type="matrix" values="0 0 0 0 0.0627451 0 0 0 0 0.0941176 0 0 0 0 0.156863 0 0 0 0.1 0"/>
<feBlend mode="normal" in2="effect1_dropShadow_365_6356" result="effect2_dropShadow_365_6356"/>
<feBlend mode="normal" in="SourceGraphic" in2="effect2_dropShadow_365_6356" result="shape"/>
</filter>
<linearGradient id="paint0_linear_365_6356" x1="10" y1="40" x2="30" y2="-1.93715e-06" gradientUnits="userSpaceOnUse">
<stop offset="0.19" stop-color="#EDA339"/>
<stop offset="1" stop-color="#F2F770"/>
</linearGradient>
<clipPath id="clip0_365_6356">
<rect width="224" height="40" fill="white"/>
</clipPath>
</defs>
</svg>
