<svg width="20" height="19" viewBox="0 0 20 19" fill="none" xmlns="http://www.w3.org/2000/svg">
<path d="M3.5 1.5C3.5 2.32843 2.82843 3 2 3C1.17157 3 0.5 2.32843 0.5 1.5C0.5 0.671573 1.17157 0 2 0C2.82843 0 3.5 0.671573 3.5 1.5Z" fill="#A8AEBD"/>
<path d="M3.5 9.5C3.5 10.3284 2.82843 11 2 11C1.17157 11 0.5 10.3284 0.5 9.5C0.5 8.67157 1.17157 8 2 8C2.82843 8 3.5 8.67157 3.5 9.5Z" fill="#A8AEBD"/>
<path d="M2 19C2.82843 19 3.5 18.3284 3.5 17.5C3.5 16.6716 2.82843 16 2 16C1.17157 16 0.5 16.6716 0.5 17.5C0.5 18.3284 1.17157 19 2 19Z" fill="#A8AEBD"/>
<path d="M11.5 1.5C11.5 2.32843 10.8284 3 10 3C9.17157 3 8.5 2.32843 8.5 1.5C8.5 0.671573 9.17157 0 10 0C10.8284 0 11.5 0.671573 11.5 1.5Z" fill="#A8AEBD"/>
<path d="M11.5 9.5C11.5 10.3284 10.8284 11 10 11C9.17157 11 8.5 10.3284 8.5 9.5C8.5 8.67157 9.17157 8 10 8C10.8284 8 11.5 8.67157 11.5 9.5Z" fill="#A8AEBD"/>
<path d="M10 19C10.8284 19 11.5 18.3284 11.5 17.5C11.5 16.6716 10.8284 16 10 16C9.17157 16 8.5 16.6716 8.5 17.5C8.5 18.3284 9.17157 19 10 19Z" fill="#A8AEBD"/>
<path d="M19.5 1.5C19.5 2.32843 18.8284 3 18 3C17.1716 3 16.5 2.32843 16.5 1.5C16.5 0.671573 17.1716 0 18 0C18.8284 0 19.5 0.671573 19.5 1.5Z" fill="#A8AEBD"/>
<path d="M19.5 9.5C19.5 10.3284 18.8284 11 18 11C17.1716 11 16.5 10.3284 16.5 9.5C16.5 8.67157 17.1716 8 18 8C18.8284 8 19.5 8.67157 19.5 9.5Z" fill="#A8AEBD"/>
<path d="M18 19C18.8284 19 19.5 18.3284 19.5 17.5C19.5 16.6716 18.8284 16 18 16C17.1716 16 16.5 16.6716 16.5 17.5C16.5 18.3284 17.1716 19 18 19Z" fill="#A8AEBD"/>
</svg>
