<svg width="88" height="88" viewBox="0 0 88 88" fill="none" xmlns="http://www.w3.org/2000/svg">
<circle cx="44" cy="44" r="43.5" fill="url(#paint0_linear_17_435)" stroke="url(#paint1_linear_17_435)"/>
<g filter="url(#filter0_d_17_435)">
<circle cx="44" cy="44" r="28" fill="white"/>
<circle cx="44" cy="44" r="27.5" stroke="url(#paint2_linear_17_435)"/>
</g>
<path d="M52 53V51C52 49.9391 51.5786 48.9217 50.8284 48.1716C50.0783 47.4214 49.0609 47 48 47H40C38.9391 47 37.9217 47.4214 37.1716 48.1716C36.4214 48.9217 36 49.9391 36 51V53M48 39C48 41.2091 46.2091 43 44 43C41.7909 43 40 41.2091 40 39C40 36.7909 41.7909 35 44 35C46.2091 35 48 36.7909 48 39Z" stroke="black" stroke-width="2" stroke-linecap="round" stroke-linejoin="round"/>
<defs>
<filter id="filter0_d_17_435" x="12" y="14" width="64" height="64" filterUnits="userSpaceOnUse" color-interpolation-filters="sRGB">
<feFlood flood-opacity="0" result="BackgroundImageFix"/>
<feColorMatrix in="SourceAlpha" type="matrix" values="0 0 0 0 0 0 0 0 0 0 0 0 0 0 0 0 0 0 127 0" result="hardAlpha"/>
<feOffset dy="2"/>
<feGaussianBlur stdDeviation="2"/>
<feComposite in2="hardAlpha" operator="out"/>
<feColorMatrix type="matrix" values="0 0 0 0 0 0 0 0 0 0 0 0 0 0 0 0 0 0 0.05 0"/>
<feBlend mode="normal" in2="BackgroundImageFix" result="effect1_dropShadow_17_435"/>
<feBlend mode="normal" in="SourceGraphic" in2="effect1_dropShadow_17_435" result="shape"/>
</filter>
<linearGradient id="paint0_linear_17_435" x1="44" y1="0" x2="44" y2="88" gradientUnits="userSpaceOnUse">
<stop stop-color="#F3F3F4"/>
<stop offset="1" stop-color="#E7E5E4" stop-opacity="0"/>
</linearGradient>
<linearGradient id="paint1_linear_17_435" x1="44" y1="0" x2="44" y2="88" gradientUnits="userSpaceOnUse">
<stop stop-color="#E2E4E9"/>
<stop offset="1" stop-color="white"/>
</linearGradient>
<linearGradient id="paint2_linear_17_435" x1="44" y1="16" x2="44" y2="72" gradientUnits="userSpaceOnUse">
<stop stop-color="#E2E4E9"/>
<stop offset="1" stop-color="#E2E4E9"/>
</linearGradient>
</defs>
</svg>
