<svg width="88" height="88" viewBox="0 0 88 88" fill="none" xmlns="http://www.w3.org/2000/svg">
<circle cx="44" cy="44" r="43.5" fill="url(#paint0_linear_19_14085)" stroke="url(#paint1_linear_19_14085)"/>
<g filter="url(#filter0_d_19_14085)">
<circle cx="44" cy="44" r="28" fill="white"/>
<circle cx="44" cy="44" r="27.5" stroke="url(#paint2_linear_19_14085)"/>
</g>
<path d="M54 38C54 36.9 53.1 36 52 36H36C34.9 36 34 36.9 34 38M54 38V50C54 51.1 53.1 52 52 52H36C34.9 52 34 51.1 34 50V38M54 38L44 45L34 38" stroke="black" stroke-width="2" stroke-linecap="round" stroke-linejoin="round"/>
<defs>
<filter id="filter0_d_19_14085" x="12" y="14" width="64" height="64" filterUnits="userSpaceOnUse" color-interpolation-filters="sRGB">
<feFlood flood-opacity="0" result="BackgroundImageFix"/>
<feColorMatrix in="SourceAlpha" type="matrix" values="0 0 0 0 0 0 0 0 0 0 0 0 0 0 0 0 0 0 127 0" result="hardAlpha"/>
<feOffset dy="2"/>
<feGaussianBlur stdDeviation="2"/>
<feComposite in2="hardAlpha" operator="out"/>
<feColorMatrix type="matrix" values="0 0 0 0 0 0 0 0 0 0 0 0 0 0 0 0 0 0 0.05 0"/>
<feBlend mode="normal" in2="BackgroundImageFix" result="effect1_dropShadow_19_14085"/>
<feBlend mode="normal" in="SourceGraphic" in2="effect1_dropShadow_19_14085" result="shape"/>
</filter>
<linearGradient id="paint0_linear_19_14085" x1="44" y1="0" x2="44" y2="88" gradientUnits="userSpaceOnUse">
<stop stop-color="#F3F3F4"/>
<stop offset="1" stop-color="#E7E5E4" stop-opacity="0"/>
</linearGradient>
<linearGradient id="paint1_linear_19_14085" x1="44" y1="0" x2="44" y2="88" gradientUnits="userSpaceOnUse">
<stop stop-color="#E2E4E9"/>
<stop offset="1" stop-color="white"/>
</linearGradient>
<linearGradient id="paint2_linear_19_14085" x1="44" y1="16" x2="44" y2="72" gradientUnits="userSpaceOnUse">
<stop stop-color="#E2E4E9"/>
<stop offset="1" stop-color="#E2E4E9"/>
</linearGradient>
</defs>
</svg>
