<svg width="88" height="88" viewBox="0 0 88 88" fill="none" xmlns="http://www.w3.org/2000/svg">
<circle cx="44" cy="44" r="43.5" fill="url(#paint0_linear_19_13935)" stroke="url(#paint1_linear_19_13935)"/>
<g filter="url(#filter0_d_19_13935)">
<circle cx="44" cy="44" r="28" fill="white"/>
<circle cx="44" cy="44" r="27.5" stroke="url(#paint2_linear_19_13935)"/>
</g>
<path d="M48 53V51C48 49.9391 47.5786 48.9217 46.8284 48.1716C46.0783 47.4214 45.0609 47 44 47H37C35.9391 47 34.9217 47.4214 34.1716 48.1716C33.4214 48.9217 33 49.9391 33 51V53M52 40V46M55 43H49M44.5 39C44.5 41.2091 42.7091 43 40.5 43C38.2909 43 36.5 41.2091 36.5 39C36.5 36.7909 38.2909 35 40.5 35C42.7091 35 44.5 36.7909 44.5 39Z" stroke="black" stroke-width="2" stroke-linecap="round" stroke-linejoin="round"/>
<defs>
<filter id="filter0_d_19_13935" x="12" y="14" width="64" height="64" filterUnits="userSpaceOnUse" color-interpolation-filters="sRGB">
<feFlood flood-opacity="0" result="BackgroundImageFix"/>
<feColorMatrix in="SourceAlpha" type="matrix" values="0 0 0 0 0 0 0 0 0 0 0 0 0 0 0 0 0 0 127 0" result="hardAlpha"/>
<feOffset dy="2"/>
<feGaussianBlur stdDeviation="2"/>
<feComposite in2="hardAlpha" operator="out"/>
<feColorMatrix type="matrix" values="0 0 0 0 0 0 0 0 0 0 0 0 0 0 0 0 0 0 0.05 0"/>
<feBlend mode="normal" in2="BackgroundImageFix" result="effect1_dropShadow_19_13935"/>
<feBlend mode="normal" in="SourceGraphic" in2="effect1_dropShadow_19_13935" result="shape"/>
</filter>
<linearGradient id="paint0_linear_19_13935" x1="44" y1="0" x2="44" y2="88" gradientUnits="userSpaceOnUse">
<stop stop-color="#F3F3F4"/>
<stop offset="1" stop-color="#E7E5E4" stop-opacity="0"/>
</linearGradient>
<linearGradient id="paint1_linear_19_13935" x1="44" y1="0" x2="44" y2="88" gradientUnits="userSpaceOnUse">
<stop stop-color="#E2E4E9"/>
<stop offset="1" stop-color="white"/>
</linearGradient>
<linearGradient id="paint2_linear_19_13935" x1="44" y1="16" x2="44" y2="72" gradientUnits="userSpaceOnUse">
<stop stop-color="#E2E4E9"/>
<stop offset="1" stop-color="#E2E4E9"/>
</linearGradient>
</defs>
</svg>
