<svg width="55" height="44" viewBox="0 0 55 44" fill="none" xmlns="http://www.w3.org/2000/svg">
<circle cx="27.8526" cy="21.8592" r="21.6106" fill="url(#paint0_linear_124_88815)" stroke="url(#paint1_linear_124_88815)" stroke-width="0.496795"/>
<g filter="url(#filter0_d_124_88815)">
<circle cx="27.8526" cy="21.8594" r="13.9103" fill="black"/>
<circle cx="27.8526" cy="21.8594" r="13.6619" stroke="url(#paint2_linear_124_88815)" stroke-width="0.496795"/>
</g>
<g clip-path="url(#clip0_124_88815)">
<path d="M27.8205 19.8406V23.8149M25.8333 21.8278H29.8077M32.7884 21.8278C32.7884 24.5715 30.5642 26.7957 27.8205 26.7957C25.0768 26.7957 22.8525 24.5715 22.8525 21.8278C22.8525 19.084 25.0768 16.8598 27.8205 16.8598C30.5642 16.8598 32.7884 19.084 32.7884 21.8278Z" stroke="white" stroke-width="0.99359" stroke-linecap="round" stroke-linejoin="round"/>
</g>
<circle cx="52.5322" cy="14.1028" r="2.46795" fill="#F2F4F7"/>
<circle cx="46.1859" cy="2.11558" r="1.41026" fill="#F2F4F7"/>
<circle cx="2.11536" cy="6.6991" r="1.76282" fill="#F2F4F7"/>
<circle cx="2.46795" cy="40.1926" r="2.46795" fill="#F2F4F7"/>
<defs>
<filter id="filter0_d_124_88815" x="11.9552" y="6.95551" width="31.7949" height="31.7949" filterUnits="userSpaceOnUse" color-interpolation-filters="sRGB">
<feFlood flood-opacity="0" result="BackgroundImageFix"/>
<feColorMatrix in="SourceAlpha" type="matrix" values="0 0 0 0 0 0 0 0 0 0 0 0 0 0 0 0 0 0 127 0" result="hardAlpha"/>
<feOffset dy="0.99359"/>
<feGaussianBlur stdDeviation="0.99359"/>
<feComposite in2="hardAlpha" operator="out"/>
<feColorMatrix type="matrix" values="0 0 0 0 0 0 0 0 0 0 0 0 0 0 0 0 0 0 0.05 0"/>
<feBlend mode="normal" in2="BackgroundImageFix" result="effect1_dropShadow_124_88815"/>
<feBlend mode="normal" in="SourceGraphic" in2="effect1_dropShadow_124_88815" result="shape"/>
</filter>
<linearGradient id="paint0_linear_124_88815" x1="27.8526" y1="0.000183105" x2="27.8526" y2="43.7181" gradientUnits="userSpaceOnUse">
<stop stop-color="#EAECF0"/>
<stop offset="1" stop-color="#D7DBE0" stop-opacity="0"/>
</linearGradient>
<linearGradient id="paint1_linear_124_88815" x1="27.8526" y1="0.000183105" x2="27.8526" y2="43.7181" gradientUnits="userSpaceOnUse">
<stop stop-color="#E2E4E9"/>
<stop offset="1" stop-color="white"/>
</linearGradient>
<linearGradient id="paint2_linear_124_88815" x1="27.8526" y1="7.9491" x2="27.8526" y2="35.7696" gradientUnits="userSpaceOnUse">
<stop stop-color="#E2E4E9"/>
<stop offset="1" stop-color="#E2E4E9"/>
</linearGradient>
<clipPath id="clip0_124_88815">
<rect width="11.9231" height="11.9231" fill="white" transform="translate(21.8589 15.8662)"/>
</clipPath>
</defs>
</svg>
